<svg viewBox="0 0 720 460" xmlns="http://www.w3.org/2000/svg"
     style="font-family:-apple-system,system-ui,sans-serif;background:white;">
  <text x="360" y="22" text-anchor="middle" font-size="13" font-weight="700" fill="#222">
    Opioid Receptor Expression Across Addiction-Relevant Circuits
  </text>
  <text x="360" y="40" text-anchor="middle" font-size="10" fill="#666">
    Allen Mouse Brain Atlas ISH · Oprm1 (MOR), Oprk1 (KOR), Oprd1 (DOR) · expression density
  </text>
  <text x="360" y="57" text-anchor="middle" font-size="10" fill="#444">
    VTA is KOR-dominant with almost no MOR — habenula (LHb, MHb) carries the highest MOR load
  </text>
  <text x="360" y="72" text-anchor="middle" font-size="9.5" fill="#888">
    Highlighted regions are primary targets of the Margolis lab
  </text>
  <line x1="80" y1="90" x2="80" y2="385" stroke="#ccc" stroke-width="1.2"/><line x1="80" y1="385" x2="560" y2="385" stroke="#ccc" stroke-width="1.2"/><line x1="76" y1="385.0" x2="80" y2="385.0" stroke="#aaa" stroke-width="1"/><text x="72" y="389.0" text-anchor="end" font-size="9" fill="#888">0.000</text><line x1="76" y1="333.2" x2="80" y2="333.2" stroke="#aaa" stroke-width="1"/><text x="72" y="337.2" text-anchor="end" font-size="9" fill="#888">0.003</text><line x1="76" y1="281.5" x2="80" y2="281.5" stroke="#aaa" stroke-width="1"/><text x="72" y="285.5" text-anchor="end" font-size="9" fill="#888">0.006</text><line x1="76" y1="229.7" x2="80" y2="229.7" stroke="#aaa" stroke-width="1"/><text x="72" y="233.7" text-anchor="end" font-size="9" fill="#888">0.009</text><line x1="76" y1="178.0" x2="80" y2="178.0" stroke="#aaa" stroke-width="1"/><text x="72" y="182.0" text-anchor="end" font-size="9" fill="#888">0.012</text><text transform="rotate(-90,16,238)" x="16" y="238" text-anchor="middle" font-size="9.5" fill="#555">ISH expression density</text><text x="101.8" y="403" text-anchor="middle" font-size="10" fill="#222" font-weight="700">VTA</text><rect x="82.0" y="90" width="39.6" height="295" fill="#f5f5f0" rx="2"/><rect x="84.8" y="383.8" width="9.6" height="1.2" fill="#c0392b" opacity="0.95" rx="1"/><rect x="97.0" y="261.0" width="9.6" height="124.0" fill="#1a5c8a" opacity="0.95" rx="1"/><rect x="109.2" y="362.7" width="9.6" height="22.3" fill="#27ae60" opacity="0.95" rx="1"/><text x="145.5" y="403" text-anchor="middle" font-size="10" fill="#222" font-weight="700">LHb</text><rect x="125.63636363636363" y="90" width="39.6" height="295" fill="#f5f5f0" rx="2"/><rect x="128.4" y="223.5" width="9.6" height="161.5" fill="#c0392b" opacity="0.95" rx="1"/><rect x="140.7" y="374.1" width="9.6" height="10.9" fill="#1a5c8a" opacity="0.95" rx="1"/><rect x="152.9" y="287.9" width="9.6" height="97.1" fill="#27ae60" opacity="0.95" rx="1"/><text x="189.1" y="403" text-anchor="middle" font-size="10" fill="#666" font-weight="400">NAc</text><rect x="172.1" y="382.2" width="9.6" height="2.8" fill="#c0392b" opacity="0.65" rx="1"/><rect x="184.3" y="326.3" width="9.6" height="58.7" fill="#1a5c8a" opacity="0.65" rx="1"/><rect x="196.5" y="237.8" width="9.6" height="147.2" fill="#27ae60" opacity="0.65" rx="1"/><text x="232.7" y="403" text-anchor="middle" font-size="10" fill="#666" font-weight="400">SNc</text><rect x="215.7" y="383.6" width="9.6" height="1.4" fill="#c0392b" opacity="0.65" rx="1"/><rect x="227.9" y="288.9" width="9.6" height="96.1" fill="#1a5c8a" opacity="0.65" rx="1"/><rect x="240.1" y="271.0" width="9.6" height="114.0" fill="#27ae60" opacity="0.65" rx="1"/><text x="276.4" y="403" text-anchor="middle" font-size="10" fill="#222" font-weight="700">MHb</text><rect x="256.5454545454545" y="90" width="39.6" height="295" fill="#f5f5f0" rx="2"/><rect x="259.3" y="177.5" width="9.6" height="207.5" fill="#c0392b" opacity="0.95" rx="1"/><rect x="271.6" y="375.7" width="9.6" height="9.3" fill="#1a5c8a" opacity="0.95" rx="1"/><rect x="283.8" y="305.0" width="9.6" height="80.0" fill="#27ae60" opacity="0.95" rx="1"/><text x="320.0" y="403" text-anchor="middle" font-size="10" fill="#666" font-weight="400">PFC</text><rect x="303.0" y="371.4" width="9.6" height="13.6" fill="#c0392b" opacity="0.65" rx="1"/><rect x="315.2" y="363.1" width="9.6" height="21.9" fill="#1a5c8a" opacity="0.65" rx="1"/><rect x="327.4" y="235.1" width="9.6" height="149.9" fill="#27ae60" opacity="0.65" rx="1"/><text x="363.6" y="403" text-anchor="middle" font-size="10" fill="#666" font-weight="400">BLA</text><rect x="346.6" y="367.7" width="9.6" height="17.3" fill="#c0392b" opacity="0.65" rx="1"/><rect x="358.8" y="340.8" width="9.6" height="44.2" fill="#1a5c8a" opacity="0.65" rx="1"/><rect x="371.1" y="219.7" width="9.6" height="165.3" fill="#27ae60" opacity="0.65" rx="1"/><text x="407.3" y="403" text-anchor="middle" font-size="10" fill="#666" font-weight="400">vHipp</text><rect x="390.3" y="359.6" width="9.6" height="25.4" fill="#c0392b" opacity="0.65" rx="1"/><rect x="402.5" y="378.1" width="9.6" height="6.9" fill="#1a5c8a" opacity="0.65" rx="1"/><rect x="414.7" y="128.5" width="9.6" height="256.5" fill="#27ae60" opacity="0.65" rx="1"/><text x="450.9" y="403" text-anchor="middle" font-size="10" fill="#666" font-weight="400">Hyp</text><rect x="433.9" y="381.9" width="9.6" height="3.1" fill="#c0392b" opacity="0.65" rx="1"/><rect x="446.1" y="355.2" width="9.6" height="29.8" fill="#1a5c8a" opacity="0.65" rx="1"/><rect x="458.3" y="297.9" width="9.6" height="87.1" fill="#27ae60" opacity="0.65" rx="1"/><text x="494.5" y="403" text-anchor="middle" font-size="10" fill="#666" font-weight="400">PAG</text><rect x="477.5" y="372.6" width="9.6" height="12.4" fill="#c0392b" opacity="0.65" rx="1"/><rect x="489.7" y="367.9" width="9.6" height="17.1" fill="#1a5c8a" opacity="0.65" rx="1"/><rect x="502.0" y="334.8" width="9.6" height="50.2" fill="#27ae60" opacity="0.65" rx="1"/><text x="538.2" y="403" text-anchor="middle" font-size="10" fill="#666" font-weight="400">IPN</text><rect x="521.2" y="379.3" width="9.6" height="5.7" fill="#c0392b" opacity="0.65" rx="1"/><rect x="533.4" y="266.0" width="9.6" height="119.0" fill="#1a5c8a" opacity="0.65" rx="1"/><rect x="545.6" y="307.7" width="9.6" height="77.3" fill="#27ae60" opacity="0.65" rx="1"/><text x="101.8" y="418" text-anchor="middle" font-size="7.5" fill="#888">Margolis lab</text><text x="101.8" y="429" text-anchor="middle" font-size="7.5" fill="#888">primary target</text><text x="145.5" y="418" text-anchor="middle" font-size="7.5" fill="#888">Margolis lab</text><text x="145.5" y="429" text-anchor="middle" font-size="7.5" fill="#888">focus: withdrawal</text><text x="276.4" y="418" text-anchor="middle" font-size="7.5" fill="#888">highest MOR</text><rect x="572" y="100" width="140" height="72" rx="4" fill="white" stroke="#ddd" stroke-width="1"/><rect x="584" y="110" width="12" height="12" fill="#c0392b" opacity="0.9" rx="1"/><text x="601" y="120" font-size="10" fill="#c0392b" font-weight="700">Oprm1 (MOR)</text><rect x="584" y="132" width="12" height="12" fill="#1a5c8a" opacity="0.9" rx="1"/><text x="601" y="142" font-size="10" fill="#1a5c8a" font-weight="700">Oprk1 (KOR)</text><rect x="584" y="154" width="12" height="12" fill="#27ae60" opacity="0.9" rx="1"/><text x="601" y="164" font-size="10" fill="#27ae60" font-weight="700">Oprd1 (DOR)</text>
</svg>